<svg width="21" height="12" viewBox="0 0 21 12" fill="none" xmlns="http://www.w3.org/2000/svg">
<path d="M19.499 2.72947V1.21894C19.499 0.665073 19.0459 0.211914 18.492 0.211914H16.478C15.9241 0.211914 15.4709 0.665073 15.4709 1.21894V4.24H6.40776V1.21894C6.40776 0.665073 5.9546 0.211914 5.40073 0.211914H3.38669C2.83283 0.211914 2.37967 0.665073 2.37967 1.21894V2.72947C1.46328 3.41424 0.869141 4.52196 0.869141 5.75053C0.869141 6.97909 1.46328 8.08682 2.37967 8.77159V10.2821C2.37967 10.836 2.83283 11.2891 3.38669 11.2891H5.40073C5.9546 11.2891 6.40776 10.836 6.40776 10.2821V7.26106H15.4709V10.2821C15.4709 10.836 15.9241 11.2891 16.478 11.2891H18.492C19.0459 11.2891 19.499 10.836 19.499 10.2821V8.77159C20.4154 8.08682 21.0096 6.97909 21.0096 5.75053C21.0096 4.52196 20.4154 3.41424 19.499 2.72947Z" fill="#0049FF"/>
</svg>
