<svg width="23" height="18" viewBox="0 0 23 18" fill="none" xmlns="http://www.w3.org/2000/svg">
<path fill-rule="evenodd" clip-rule="evenodd" d="M7.98793 17.9409C7.84738 17.9409 7.74516 17.8642 7.70683 17.7237L6.58245 13.8778C4.38479 13.9417 2.71099 13.8267 1.22885 12.5617C0.653882 12.0634 0.321678 11.4885 0.321678 10.8368C0.296124 9.21415 2.11047 7.61702 3.0943 6.74818C3.26041 6.58208 3.42651 6.46708 3.5415 6.36487C3.64372 6.24987 3.75871 6.10932 3.87371 6.00711C4.25702 5.55991 4.71699 5.03605 5.57306 4.90828C6.28858 4.76773 6.83799 4.88272 7.2213 5.1766C7.57906 5.45769 7.77072 5.91767 7.79627 6.51819C7.82182 7.10594 7.68128 7.48925 7.3874 7.75757C6.96576 8.11533 6.33968 8.06422 5.73916 7.97478L5.16419 9.38026L9.16342 9.26526C10.045 8.61363 10.9011 8.33254 11.6677 8.44753C12.2427 8.52419 12.7666 8.8564 13.1754 9.38026C15.7053 9.29082 15.9992 9.43136 16.2547 9.54636C16.3314 9.57191 16.3569 9.59747 16.5486 9.59747C16.6891 9.59747 16.8552 9.57191 17.0469 9.5208C17.1235 9.49525 17.213 9.49525 17.2896 9.45692C17.213 9.1886 17.1235 8.94584 17.0469 8.7414C16.7402 7.75757 16.7402 7.75757 15.8075 7.23371C15.5392 7.0676 15.207 6.87595 14.7981 6.63318C14.6831 6.58208 14.632 6.46708 14.6576 6.36487C14.7087 5.81545 14.9259 5.39381 15.3092 5.12549C15.7564 4.81884 16.3569 4.76773 17.0469 4.95939C17.8646 5.1766 18.3118 5.6749 18.6951 6.13488C18.7973 6.24987 18.9123 6.39042 19.0273 6.49264C19.3212 6.82484 19.6023 7.0165 19.8451 7.20815C20.1517 7.46369 20.4456 7.6809 20.7522 8.06422C22.2599 10.0063 22.7327 11.2457 21.11 12.6767C19.8451 13.7756 18.5801 13.8267 17.098 13.8778C16.7147 13.9033 16.3058 13.9033 15.8969 13.9417L14.7342 17.6726C14.7087 17.8004 14.5681 17.8898 14.4659 17.8898L7.98793 17.9409Z" fill="#0049FF"/>
<path fill-rule="evenodd" clip-rule="evenodd" d="M11.2845 7.56585C10.6457 7.56585 10.0196 7.32308 9.44461 6.82478C8.34578 5.89205 7.77081 4.3588 8.03913 3.06832C8.25634 2.0206 9.02297 1.25397 10.2368 0.896213C11.1951 0.627894 12.1917 0.730111 12.9839 1.20286C13.7249 1.63728 14.2488 2.3528 14.4149 3.14498C14.7727 4.88266 13.4822 6.87589 12.1534 7.37419C11.885 7.51474 11.5784 7.56585 11.2845 7.56585Z" fill="#0049FF"/>
</svg>
