<svg width="14" height="13" viewBox="0 0 14 13" fill="none" xmlns="http://www.w3.org/2000/svg">
<path d="M12.972 11.8532C12.1781 10.4599 10.9384 9.37415 9.45248 8.77091C10.1914 8.21671 10.7372 7.44406 11.0126 6.56242C11.288 5.68077 11.2791 4.73481 10.987 3.85855C10.6949 2.98229 10.1345 2.22014 9.38519 1.68006C8.63588 1.13999 7.73563 0.849365 6.81196 0.849365C5.8883 0.849365 4.98805 1.13999 4.23874 1.68006C3.48942 2.22014 2.92903 2.98229 2.63695 3.85855C2.34486 4.73481 2.33588 5.68077 2.61129 6.56242C2.88669 7.44406 3.43252 8.21671 4.17145 8.77091C2.68554 9.37415 1.44584 10.4599 0.651923 11.8532C0.602729 11.9323 0.569941 12.0205 0.55551 12.1126C0.541078 12.2046 0.545296 12.2986 0.567914 12.3889C0.590531 12.4793 0.631087 12.5642 0.687169 12.6386C0.743251 12.7129 0.813715 12.7753 0.894372 12.8219C0.975029 12.8685 1.06423 12.8984 1.15668 12.9098C1.24912 12.9213 1.34293 12.914 1.43251 12.8885C1.52209 12.8629 1.60562 12.8196 1.67814 12.7612C1.75065 12.7027 1.81067 12.6302 1.85463 12.5481C2.90389 10.7345 4.75688 9.65282 6.81196 9.65282C8.86705 9.65282 10.72 10.7351 11.7693 12.5481C11.8646 12.7013 12.0157 12.8114 12.1906 12.8552C12.3656 12.899 12.5508 12.8731 12.707 12.7828C12.8632 12.6926 12.9782 12.5451 13.0276 12.3717C13.0771 12.1982 13.0571 12.0123 12.972 11.8532ZM3.80085 5.25196C3.80085 4.65642 3.97745 4.07425 4.30832 3.57908C4.63918 3.0839 5.10945 2.69796 5.65966 2.47005C6.20987 2.24215 6.81531 2.18252 7.3994 2.2987C7.9835 2.41489 8.52003 2.70167 8.94114 3.12278C9.36226 3.54389 9.64904 4.08042 9.76522 4.66452C9.8814 5.24862 9.82177 5.85405 9.59387 6.40426C9.36597 6.95447 8.98002 7.42474 8.48485 7.75561C7.98967 8.08647 7.40751 8.26307 6.81196 8.26307C6.01365 8.26215 5.2483 7.94462 4.6838 7.38012C4.11931 6.81563 3.80177 6.05027 3.80085 5.25196Z" fill="white"/>
</svg>
